<?xml version="1.0" encoding="UTF-8"?>
<!-- Do not edit this file with editors other than draw.io -->
<!DOCTYPE svg PUBLIC "-//W3C//DTD SVG 1.1//EN" "http://www.w3.org/Graphics/SVG/1.1/DTD/svg11.dtd">
<svg xmlns="http://www.w3.org/2000/svg" style="background: #ffffff; background-color: light-dark(#ffffff, var(--ge-dark-color, #121212)); color-scheme: light dark;" xmlns:xlink="http://www.w3.org/1999/xlink" version="1.1" width="362px" height="49px" viewBox="-0.5 -0.5 362 49" content="&lt;mxfile host=&quot;app.diagrams.net&quot; agent=&quot;Mozilla/5.0 (Windows NT 10.0; Win64; x64) AppleWebKit/537.36 (KHTML, like Gecko) Chrome/133.0.0.0 Safari/537.36&quot; version=&quot;26.1.0&quot; scale=&quot;1&quot; border=&quot;0&quot;&gt;&#10;  &lt;diagram name=&quot;1 oldal&quot; id=&quot;96mEtiygQlhE2JcQaaqC&quot;&gt;&#10;    &lt;mxGraphModel dx=&quot;1045&quot; dy=&quot;559&quot; grid=&quot;1&quot; gridSize=&quot;10&quot; guides=&quot;1&quot; tooltips=&quot;1&quot; connect=&quot;1&quot; arrows=&quot;1&quot; fold=&quot;1&quot; page=&quot;1&quot; pageScale=&quot;1&quot; pageWidth=&quot;827&quot; pageHeight=&quot;1169&quot; math=&quot;0&quot; shadow=&quot;0&quot;&gt;&#10;      &lt;root&gt;&#10;        &lt;mxCell id=&quot;0&quot; /&gt;&#10;        &lt;mxCell id=&quot;1&quot; parent=&quot;0&quot; /&gt;&#10;        &lt;mxCell id=&quot;GQWmz3rs7eUb1Hk6HRY0-6&quot; value=&quot;&quot; style=&quot;aspect=fixed;sketch=0;html=1;dashed=0;whitespace=wrap;verticalLabelPosition=bottom;verticalAlign=top;fillColor=#2875E2;strokeColor=#ffffff;points=[[0.005,0.63,0],[0.1,0.2,0],[0.9,0.2,0],[0.5,0,0],[0.995,0.63,0],[0.72,0.99,0],[0.5,1,0],[0.28,0.99,0]];shape=mxgraph.kubernetes.icon2;kubernetesLabel=1;prIcon=deploy&quot; vertex=&quot;1&quot; parent=&quot;1&quot;&gt;&#10;          &lt;mxGeometry x=&quot;550&quot; y=&quot;330&quot; width=&quot;50&quot; height=&quot;48&quot; as=&quot;geometry&quot; /&gt;&#10;        &lt;/mxCell&gt;&#10;        &lt;mxCell id=&quot;GQWmz3rs7eUb1Hk6HRY0-7&quot; value=&quot;&quot; style=&quot;aspect=fixed;sketch=0;html=1;dashed=0;whitespace=wrap;verticalLabelPosition=bottom;verticalAlign=top;fillColor=#2875E2;strokeColor=#ffffff;points=[[0.005,0.63,0],[0.1,0.2,0],[0.9,0.2,0],[0.5,0,0],[0.995,0.63,0],[0.72,0.99,0],[0.5,1,0],[0.28,0.99,0]];shape=mxgraph.kubernetes.icon2;kubernetesLabel=1;prIcon=rs&quot; vertex=&quot;1&quot; parent=&quot;1&quot;&gt;&#10;          &lt;mxGeometry x=&quot;400&quot; y=&quot;330&quot; width=&quot;50&quot; height=&quot;48&quot; as=&quot;geometry&quot; /&gt;&#10;        &lt;/mxCell&gt;&#10;        &lt;mxCell id=&quot;GQWmz3rs7eUb1Hk6HRY0-8&quot; value=&quot;&quot; style=&quot;aspect=fixed;sketch=0;html=1;dashed=0;whitespace=wrap;verticalLabelPosition=bottom;verticalAlign=top;fillColor=#2875E2;strokeColor=#ffffff;points=[[0.005,0.63,0],[0.1,0.2,0],[0.9,0.2,0],[0.5,0,0],[0.995,0.63,0],[0.72,0.99,0],[0.5,1,0],[0.28,0.99,0]];shape=mxgraph.kubernetes.icon2;kubernetesLabel=1;prIcon=pod&quot; vertex=&quot;1&quot; parent=&quot;1&quot;&gt;&#10;          &lt;mxGeometry x=&quot;240&quot; y=&quot;330&quot; width=&quot;50&quot; height=&quot;48&quot; as=&quot;geometry&quot; /&gt;&#10;        &lt;/mxCell&gt;&#10;        &lt;mxCell id=&quot;GQWmz3rs7eUb1Hk6HRY0-9&quot; style=&quot;edgeStyle=orthogonalEdgeStyle;rounded=0;orthogonalLoop=1;jettySize=auto;html=1;entryX=1.031;entryY=0.508;entryDx=0;entryDy=0;entryPerimeter=0;&quot; edge=&quot;1&quot; parent=&quot;1&quot; source=&quot;GQWmz3rs7eUb1Hk6HRY0-6&quot; target=&quot;GQWmz3rs7eUb1Hk6HRY0-7&quot;&gt;&#10;          &lt;mxGeometry relative=&quot;1&quot; as=&quot;geometry&quot; /&gt;&#10;        &lt;/mxCell&gt;&#10;        &lt;mxCell id=&quot;GQWmz3rs7eUb1Hk6HRY0-10&quot; style=&quot;edgeStyle=orthogonalEdgeStyle;rounded=0;orthogonalLoop=1;jettySize=auto;html=1;entryX=0.971;entryY=0.508;entryDx=0;entryDy=0;entryPerimeter=0;&quot; edge=&quot;1&quot; parent=&quot;1&quot; source=&quot;GQWmz3rs7eUb1Hk6HRY0-7&quot; target=&quot;GQWmz3rs7eUb1Hk6HRY0-8&quot;&gt;&#10;          &lt;mxGeometry relative=&quot;1&quot; as=&quot;geometry&quot; /&gt;&#10;        &lt;/mxCell&gt;&#10;      &lt;/root&gt;&#10;    &lt;/mxGraphModel&gt;&#10;  &lt;/diagram&gt;&#10;&lt;/mxfile&gt;&#10;"><defs/><rect fill="#ffffff" width="100%" height="100%" x="0" y="0" style="fill: light-dark(#ffffff, var(--ge-dark-color, #121212));"/><g><g data-cell-id="0"><g data-cell-id="1"><g data-cell-id="GQWmz3rs7eUb1Hk6HRY0-6"><g><path d="M 334.82 0.03 C 334.38 0.05 333.94 0.16 333.56 0.36 L 316.37 8.55 C 315.47 8.99 314.81 9.81 314.59 10.77 L 310.34 29.22 C 310.15 30.07 310.31 30.98 310.78 31.72 C 310.86 31.8 310.92 31.88 310.97 31.99 L 322.87 46.77 C 323.5 47.53 324.46 48 325.45 48 L 344.53 48 C 345.51 48 346.47 47.53 347.1 46.77 L 359 31.96 C 359.6 31.2 359.85 30.18 359.63 29.22 L 355.38 10.77 C 355.16 9.81 354.5 8.99 353.6 8.55 L 336.41 0.36 C 335.92 0.11 335.37 0 334.82 0.03 Z" fill="#ffffff" stroke="none" pointer-events="all" style="fill: light-dark(rgb(255, 255, 255), rgb(18, 18, 18));"/><path d="M 334.83 1.47 C 334.42 1.49 334.01 1.59 333.65 1.77 L 317.49 9.48 C 316.64 9.89 316.02 10.66 315.82 11.57 L 311.82 28.91 C 311.64 29.71 311.8 30.56 312.23 31.25 C 312.31 31.33 312.36 31.41 312.41 31.51 L 323.6 45.4 C 324.19 46.12 325.09 46.56 326.02 46.56 L 343.95 46.56 C 344.88 46.56 345.78 46.12 346.38 45.4 L 357.56 31.49 C 358.13 30.76 358.36 29.81 358.15 28.91 L 354.16 11.57 C 353.95 10.66 353.33 9.89 352.48 9.48 L 336.33 1.77 C 335.86 1.54 335.35 1.44 334.83 1.47 Z" fill="#2875e2" stroke="none" pointer-events="all" style="fill: light-dark(rgb(40, 117, 226), rgb(85, 151, 245));"/><path d="M 334.84 12.04 L 334.36 12.06 C 329.22 12.36 325.29 16.76 325.56 21.91 C 325.83 27.05 330.21 31.01 335.36 30.77 L 335.18 27.06 C 332.07 27.21 329.43 24.82 329.26 21.71 C 329.1 18.6 331.47 15.94 334.58 15.76 C 337.61 15.58 340.22 17.82 340.54 20.81 L 337.28 20.81 L 340.22 28.02 L 347.02 20.81 L 344.09 20.81 L 344.26 20.8 C 343.94 15.82 339.78 12 334.84 12.04 Z" fill="#ffffff" stroke="none" pointer-events="all" style="fill: light-dark(rgb(255, 255, 255), rgb(18, 18, 18));"/><g fill="#ffffff" font-family="&quot;Arial&quot;, &quot;Helvetica&quot;" text-anchor="middle" font-size="9.600000000000001px" style="fill: light-dark(rgb(255, 255, 255), rgb(18, 18, 18));"><text x="334.5" y="39.3">deploy</text></g></g></g><g data-cell-id="GQWmz3rs7eUb1Hk6HRY0-7"><g><path d="M 184.82 0.03 C 184.38 0.05 183.94 0.16 183.56 0.36 L 166.37 8.55 C 165.47 8.99 164.81 9.81 164.59 10.77 L 160.34 29.22 C 160.15 30.07 160.31 30.98 160.78 31.72 C 160.86 31.8 160.92 31.88 160.97 31.99 L 172.87 46.77 C 173.5 47.53 174.46 48 175.45 48 L 194.53 48 C 195.51 48 196.47 47.53 197.1 46.77 L 209 31.96 C 209.6 31.2 209.85 30.18 209.63 29.22 L 205.38 10.77 C 205.16 9.81 204.5 8.99 203.6 8.55 L 186.41 0.36 C 185.92 0.11 185.37 0 184.82 0.03 Z" fill="#ffffff" stroke="none" pointer-events="all" style="fill: light-dark(rgb(255, 255, 255), rgb(18, 18, 18));"/><path d="M 184.83 1.47 C 184.42 1.49 184.01 1.59 183.65 1.77 L 167.49 9.48 C 166.64 9.89 166.02 10.66 165.82 11.57 L 161.82 28.91 C 161.64 29.71 161.8 30.56 162.23 31.25 C 162.31 31.33 162.36 31.41 162.41 31.51 L 173.6 45.4 C 174.19 46.12 175.09 46.56 176.02 46.56 L 193.95 46.56 C 194.88 46.56 195.78 46.12 196.38 45.4 L 207.56 31.49 C 208.13 30.76 208.36 29.81 208.15 28.91 L 204.16 11.57 C 203.95 10.66 203.33 9.89 202.48 9.48 L 186.33 1.77 C 185.86 1.54 185.35 1.44 184.83 1.47 Z" fill="#2875e2" stroke="none" pointer-events="all" style="fill: light-dark(rgb(40, 117, 226), rgb(85, 151, 245));"/><path d="M 180.48 10.94 L 180.48 11.55 L 180.48 12.15 L 180.48 12.66 L 180.48 13.26 L 181.68 13.26 L 181.68 12.66 L 181.68 12.15 L 183.57 12.15 L 184.17 12.15 L 184.17 10.94 L 183.57 10.94 L 181.68 10.94 Z M 186.58 10.94 L 186.58 12.15 L 187.18 12.15 L 190.79 12.15 L 191.39 12.15 L 191.39 10.94 L 190.79 10.94 L 187.18 10.94 Z M 193.8 10.94 L 193.8 12.15 L 194.4 12.15 L 195.31 12.15 L 195.31 13.63 L 195.31 14.24 L 196.52 14.24 L 196.52 13.63 L 196.52 11.55 C 196.52 11.22 196.25 10.94 195.92 10.94 L 194.39 10.94 Z M 176.98 14.15 L 176.98 14.76 L 176.98 15.36 L 176.98 16.34 L 176.98 16.94 L 178.18 16.94 L 178.18 16.34 L 178.18 15.36 L 179.59 15.36 L 180.2 15.36 L 180.2 14.15 L 179.59 14.15 L 178.18 14.15 Z M 182.6 14.15 L 182.6 15.35 L 183.2 15.35 L 186.81 15.35 L 187.41 15.35 L 187.41 14.15 L 186.81 14.15 L 183.2 14.15 Z M 189.82 14.15 L 189.82 15.35 L 190.42 15.35 L 191.82 15.35 L 191.82 16.37 L 191.82 16.97 L 193.02 16.97 L 193.02 16.37 L 193.02 14.75 C 193.02 14.42 192.75 14.15 192.42 14.15 L 190.42 14.15 Z M 195.32 16.64 L 195.32 17.24 L 195.32 20.85 L 195.32 21.46 L 196.52 21.46 L 196.52 20.85 L 196.52 17.24 L 196.52 16.64 Z M 174.08 17.36 C 173.75 17.36 173.48 17.63 173.48 17.97 L 173.48 28.39 C 173.48 28.72 173.75 28.99 174.08 28.99 L 188.92 28.99 C 189.25 28.99 189.52 28.72 189.52 28.39 L 189.52 25.78 L 190.4 25.78 L 191.01 25.78 L 191.01 24.58 L 190.4 24.58 L 189.52 24.58 L 189.52 17.97 C 189.53 17.63 189.26 17.36 188.92 17.36 Z M 191.82 19.37 L 191.82 19.97 L 191.82 23.59 L 191.82 24.19 L 193.02 24.19 L 193.02 23.59 L 193.02 22.57 L 193.43 22.57 L 194.03 22.57 L 194.03 21.37 L 193.43 21.37 L 193.02 21.37 L 193.02 19.97 L 193.02 19.37 Z" fill="#ffffff" stroke="none" pointer-events="all" style="fill: light-dark(rgb(255, 255, 255), rgb(18, 18, 18));"/><g fill="#ffffff" font-family="&quot;Arial&quot;, &quot;Helvetica&quot;" text-anchor="middle" font-size="9.600000000000001px" style="fill: light-dark(rgb(255, 255, 255), rgb(18, 18, 18));"><text x="184.5" y="39.3">rs</text></g></g></g><g data-cell-id="GQWmz3rs7eUb1Hk6HRY0-8"><g><path d="M 24.82 0.03 C 24.38 0.05 23.94 0.16 23.56 0.36 L 6.37 8.55 C 5.47 8.99 4.81 9.81 4.59 10.77 L 0.34 29.22 C 0.15 30.07 0.31 30.98 0.78 31.72 C 0.86 31.8 0.92 31.88 0.97 31.99 L 12.87 46.77 C 13.5 47.53 14.46 48 15.45 48 L 34.53 48 C 35.51 48 36.47 47.53 37.1 46.77 L 49 31.96 C 49.6 31.2 49.85 30.18 49.63 29.22 L 45.38 10.77 C 45.16 9.81 44.5 8.99 43.6 8.55 L 26.41 0.36 C 25.92 0.11 25.37 0 24.82 0.03 Z" fill="#ffffff" stroke="none" pointer-events="all" style="fill: light-dark(rgb(255, 255, 255), rgb(18, 18, 18));"/><path d="M 24.83 1.47 C 24.42 1.49 24.01 1.59 23.65 1.77 L 7.49 9.48 C 6.64 9.89 6.02 10.66 5.82 11.57 L 1.82 28.91 C 1.64 29.71 1.8 30.56 2.23 31.25 C 2.31 31.33 2.36 31.41 2.41 31.51 L 13.6 45.4 C 14.19 46.12 15.09 46.56 16.02 46.56 L 33.95 46.56 C 34.88 46.56 35.78 46.12 36.38 45.4 L 47.56 31.49 C 48.13 30.76 48.36 29.81 48.15 28.91 L 44.16 11.57 C 43.95 10.66 43.33 9.89 42.48 9.48 L 26.33 1.77 C 25.86 1.54 25.35 1.44 24.83 1.47 Z" fill="#2875e2" stroke="none" pointer-events="all" style="fill: light-dark(rgb(40, 117, 226), rgb(85, 151, 245));"/><path d="M 35.47 13.8 L 35.47 24.93 L 25.72 30.33 L 25.67 16.71 Z M 14.53 13.8 L 14.53 24.93 L 24.29 30.34 L 24.34 16.71 Z M 14.53 12.63 L 25 9.6 L 35.47 12.63 L 25 15.67 Z" fill="#ffffff" stroke="none" pointer-events="all" style="fill: light-dark(rgb(255, 255, 255), rgb(18, 18, 18));"/><g fill="#ffffff" font-family="&quot;Arial&quot;, &quot;Helvetica&quot;" text-anchor="middle" font-size="9.600000000000001px" style="fill: light-dark(rgb(255, 255, 255), rgb(18, 18, 18));"><text x="24.5" y="39.3">pod</text></g></g></g><g data-cell-id="GQWmz3rs7eUb1Hk6HRY0-9"><g><path d="M 310 24 L 260 24 L 217.92 24.33" fill="none" stroke="#000000" stroke-miterlimit="10" pointer-events="stroke" style="stroke: light-dark(rgb(0, 0, 0), rgb(255, 255, 255));"/><path d="M 212.67 24.38 L 219.64 20.82 L 217.92 24.33 L 219.7 27.82 Z" fill="#000000" stroke="#000000" stroke-miterlimit="10" pointer-events="all" style="fill: light-dark(rgb(0, 0, 0), rgb(255, 255, 255)); stroke: light-dark(rgb(0, 0, 0), rgb(255, 255, 255));"/></g></g><g data-cell-id="GQWmz3rs7eUb1Hk6HRY0-10"><g><path d="M 160 24 L 105 24 L 54.92 24.34" fill="none" stroke="#000000" stroke-miterlimit="10" pointer-events="stroke" style="stroke: light-dark(rgb(0, 0, 0), rgb(255, 255, 255));"/><path d="M 49.67 24.38 L 56.64 20.83 L 54.92 24.34 L 56.69 27.83 Z" fill="#000000" stroke="#000000" stroke-miterlimit="10" pointer-events="all" style="fill: light-dark(rgb(0, 0, 0), rgb(255, 255, 255)); stroke: light-dark(rgb(0, 0, 0), rgb(255, 255, 255));"/></g></g></g></g></g></svg>